<?xml version="1.0" standalone="no"?><!DOCTYPE svg PUBLIC "-//W3C//DTD SVG 1.1//EN" "http://www.w3.org/Graphics/SVG/1.1/DTD/svg11.dtd"><svg t="1583828475584" class="icon" viewBox="0 0 1024 1024" version="1.1" xmlns="http://www.w3.org/2000/svg" p-id="804" xmlns:xlink="http://www.w3.org/1999/xlink" width="200" height="200"><defs><style type="text/css"></style></defs><path d="M709.818182 151.272727a139.636364 139.636364 0 0 1 8.192 279.04l-8.192 0.232728h-69.818182v139.636363h69.818182a139.636364 139.636364 0 0 1 139.403636 131.444364l0.232727 8.192a139.636364 139.636364 0 0 1-279.04 8.192l-0.232727-8.192v-69.818182h-139.636363v69.818182a139.636364 139.636364 0 0 1-131.444364 139.403636l-8.192 0.232727a139.636364 139.636364 0 0 1-8.192-279.04l8.192-0.232727h69.818182v-139.636363h-69.818182a139.776 139.776 0 0 1-138.612364-123.112728l-0.744727-8.192-0.279273-8.331636a139.636364 139.636364 0 0 1 279.04-8.192l0.232728 8.192v69.818182h139.636363v-69.818182a139.636364 139.636364 0 0 1 131.444364-139.403636l8.192-0.232728z m0 488.727273h-69.818182v69.818182a69.818182 69.818182 0 1 0 76.520727-69.492364l-6.702545-0.325818z m-349.090909 0h-69.818182a69.818182 69.818182 0 1 0 69.492364 76.520727l0.325818-6.702545v-69.818182z m209.454545-209.454545h-139.636363v139.636363h139.636363v-139.636363z m-279.272727-209.454546a69.818182 69.818182 0 0 0-69.492364 62.091636l-0.325818 6.516364 0.139636 6.050909a69.818182 69.818182 0 0 0 63.301819 64.698182l6.376727 0.279273h69.818182v-69.818182a69.818182 69.818182 0 0 0-56.552728-68.561455l-6.516363-0.930909-6.749091-0.325818z m418.909091 0a69.818182 69.818182 0 0 0-69.492364 63.115636l-0.325818 6.702546v69.818182h69.818182a69.818182 69.818182 0 0 0 68.561454-56.552728l0.930909-6.516363 0.325819-6.749091a69.818182 69.818182 0 0 0-69.818182-69.818182z" fill="#979797" p-id="805"></path></svg>